<svg xmlns="http://www.w3.org/2000/svg" width="25.521" height="25.521" viewBox="0 0 25.521 25.521"><path d="M-415.382-149.982a12.761,12.761,0,0,0-12.761,12.761,12.761,12.761,0,0,0,12.761,12.761,12.761,12.761,0,0,0,12.76-12.761A12.761,12.761,0,0,0-415.382-149.982Zm6.154,10.7a7.986,7.986,0,0,1-2.2,5.931,7.986,7.986,0,0,1-5.825,2.469,7.991,7.991,0,0,1-4.328-1.269,5.675,5.675,0,0,0,4.181-1.169,2.826,2.826,0,0,1-2.637-1.96,2.837,2.837,0,0,0,1.276-.048,2.827,2.827,0,0,1-2.265-2.8,2.814,2.814,0,0,0,1.276.353,2.827,2.827,0,0,1-.877-3.77,8.016,8.016,0,0,0,5.822,2.951,2.827,2.827,0,0,1,.538-2.4,2.826,2.826,0,0,1,2.212-1.07,2.819,2.819,0,0,1,2.061.892,5.651,5.651,0,0,0,1.793-.686,2.831,2.831,0,0,1-1.241,1.562,5.638,5.638,0,0,0,1.621-.444,5.738,5.738,0,0,1-1.405,1.46Z" transform="translate(428.143 149.982)" fill="#1c4975"/></svg>