<svg xmlns="http://www.w3.org/2000/svg" width="25.521" height="25.521" viewBox="0 0 25.521 25.521"><path d="M-324.915-149.982a12.761,12.761,0,0,0-12.761,12.76,12.761,12.761,0,0,0,12.761,12.761,12.761,12.761,0,0,0,12.76-12.761A12.761,12.761,0,0,0-324.915-149.982Zm-2.651,17.554H-329.8v-7.217h2.233Zm-1.128-8.162a1.326,1.326,0,0,1-1.321-1.331,1.326,1.326,0,0,1,1.321-1.332,1.326,1.326,0,0,1,1.321,1.332,1.326,1.326,0,0,1-1.322,1.331Zm9.5,8.162h-2.224v-3.788c0-1.037-.395-1.619-1.216-1.619-.894,0-1.361.6-1.361,1.619v3.788h-2.142v-7.217H-324v.972a2.517,2.517,0,0,1,2.172-1.195c1.53,0,2.625.935,2.625,2.871Z" transform="translate(337.676 149.982)" fill="#fff"/></svg>