<svg xmlns="http://www.w3.org/2000/svg" width="25.521" height="25.521" viewBox="0 0 25.521 25.521"><g transform="translate(0 0)"><path d="M-234.449-149.982a12.761,12.761,0,0,0-12.761,12.761,12.761,12.761,0,0,0,12.761,12.761,12.761,12.761,0,0,0,12.761-12.761A12.761,12.761,0,0,0-234.449-149.982Zm7.216,15.936a1.821,1.821,0,0,1-1.822,1.822h-10.79a1.822,1.822,0,0,1-1.822-1.822V-140.4a1.822,1.822,0,0,1,1.822-1.822h10.79a1.821,1.821,0,0,1,1.822,1.822Z" transform="translate(247.21 149.982)" fill="#1c4975"/><path d="M-214.213-121a.392.392,0,0,0-.41-.035.392.392,0,0,0-.216.35v4.246a.392.392,0,0,0,.216.35.392.392,0,0,0,.41-.035l2.858-2.123a.392.392,0,0,0,.158-.315.392.392,0,0,0-.158-.315Z" transform="translate(226.313 131.324)" fill="#1c4975"/></g></svg>