<svg xmlns="http://www.w3.org/2000/svg" width="25.521" height="25.521" viewBox="0 0 25.521 25.521"><path d="M-127.021-127.622q-2.619-.055-5.24,0a2.106,2.106,0,0,0-1.606.595,2.106,2.106,0,0,0-.633,1.592c-.054,1.745-.051,3.495,0,5.241a2.13,2.13,0,0,0,.64,1.6,2.13,2.13,0,0,0,1.619.6c.867.032,1.735.006,2.6.006s1.737.026,2.6-.006a2.16,2.16,0,0,0,1.657-.631,2.16,2.16,0,0,0,.626-1.659q.05-2.537,0-5.076a2.139,2.139,0,0,0-.623-1.646,2.139,2.139,0,0,0-1.646-.622Zm-2.6,7.856a3.063,3.063,0,0,1-3.1-3.031,3.062,3.062,0,0,1,3.072-3.052,3.063,3.063,0,0,1,3.1,3.031,3.063,3.063,0,0,1-3.072,3.053Zm3.206-5.5a.708.708,0,0,1-.718-.7.71.71,0,0,1,.695-.724.713.713,0,0,1,.718.7.712.712,0,0,1-.695.727Z" transform="translate(142.411 135.565)" fill="#fff"/><path d="M-124.338-119.578a1.984,1.984,0,0,0-1.41.579,1.984,1.984,0,0,0-.583,1.409,1.985,1.985,0,0,0,.59,1.406,1.985,1.985,0,0,0,1.413.572,1.984,1.984,0,0,0,1.41-.579,1.984,1.984,0,0,0,.583-1.409,1.984,1.984,0,0,0-.59-1.406A1.984,1.984,0,0,0-124.338-119.578Z" transform="translate(137.111 130.355)" fill="#fff"/><path d="M-143.983-149.982a12.761,12.761,0,0,0-12.761,12.761,12.761,12.761,0,0,0,12.761,12.761,12.761,12.761,0,0,0,12.761-12.761A12.761,12.761,0,0,0-143.983-149.982Zm5.946,15.529a3.086,3.086,0,0,1-3.048,3.085c-1.92.069-3.847.071-5.768,0a3.14,3.14,0,0,1-3.053-3.094c-.01-.151-.042-.3-.064-.45v-4.62c.039-.281.07-.558.12-.841a3.082,3.082,0,0,1,3-2.7c1.92-.066,3.847-.069,5.768,0a3.087,3.087,0,0,1,3.048,3.086q.085,2.766,0,5.537Z" transform="translate(156.744 149.982)" fill="#fff"/></svg>