<svg xmlns="http://www.w3.org/2000/svg" width="254.293" height="32" viewBox="0 0 254.293 32"><path d="M339.19,16.66h12.929v3.8h-8.535v2.439h7.73v3.52h-7.73v2.554h8.65v3.8H339.19Z" transform="translate(-183.128 -8.995)" fill="#fff"/><path d="M372.54,16.66h4.173l6.639,8.512V16.66h4.394v16.1h-3.92l-6.892-8.834v8.834H372.54Z" transform="translate(-201.134 -8.995)" fill="#fff"/><path d="M411.79,16.66h12.929v3.8h-8.535v2.439h7.73v3.52h-7.73v2.554h8.65v3.8H411.79Z" transform="translate(-222.325 -8.995)" fill="#fff"/><path d="M445.14,16.656h7.615a9.4,9.4,0,0,1,3.152.46A5.41,5.41,0,0,1,458,18.4a4.972,4.972,0,0,1,1.426,3.75V22.2a5.066,5.066,0,0,1-.9,3.083,5.652,5.652,0,0,1-2.415,1.863l3.842,5.613H454.8l-3.244-4.877H449.6V32.76H445.14v-16.1Zm7.408,7.73a2.694,2.694,0,0,0,1.771-.52,1.718,1.718,0,0,0,.621-1.39v-.046a1.677,1.677,0,0,0-.644-1.44,2.955,2.955,0,0,0-1.771-.469H449.6v3.865Z" transform="translate(-240.331 -8.991)" fill="#fff"/><path d="M488.649,32.694a9.662,9.662,0,0,1-3.487-.612,8.358,8.358,0,0,1-2.774-1.712,7.938,7.938,0,0,1-1.84-2.636,8.329,8.329,0,0,1-.667-3.373v-.046a8.255,8.255,0,0,1,.653-3.281,8.347,8.347,0,0,1,1.8-2.669,8.2,8.2,0,0,1,2.742-1.785,9.185,9.185,0,0,1,3.46-.644,9.912,9.912,0,0,1,3.69.621,10.142,10.142,0,0,1,2.843,1.725l-2.623,3.152a7.215,7.215,0,0,0-1.785-1.127,5.266,5.266,0,0,0-2.107-.391,3.838,3.838,0,0,0-1.624.345,4.009,4.009,0,0,0-1.3.943,4.6,4.6,0,0,0-1.2,3.129v.046a4.879,4.879,0,0,0,.322,1.794,4.083,4.083,0,0,0,.911,1.417,4.265,4.265,0,0,0,1.385.92,4.545,4.545,0,0,0,1.767.331,4.613,4.613,0,0,0,2.586-.667V26.22H488.23V22.953h7.408V30.2a11.767,11.767,0,0,1-3.037,1.771,10.206,10.206,0,0,1-3.952.722Z" transform="translate(-259.086 -8.603)" fill="#fff"/><path d="M522.459,26.736,516.34,16.66h5.084l3.313,5.866,3.336-5.866h4.992l-6.119,10.007v6.1h-4.486Z" transform="translate(-278.772 -8.995)" fill="#fff"/><path d="M263.781,2.2A15.827,15.827,0,0,0,261.4,3.323l-5.889,5.889a15.617,15.617,0,0,0-1.123,2.379Z" transform="translate(-137.345 -1.188)" fill="#fff"/><path d="M268.2,0c-.456,0-.9.023-1.348.06L252.26,14.654c-.037.446-.06.893-.06,1.348,0,.078,0,.152,0,.23L268.432,0C268.354,0,268.281,0,268.2,0Z" transform="translate(-136.163)" fill="#fff"/><path d="M253.155,20.767,272.967.955q-.711-.207-1.449-.345L252.81,19.318Q252.955,20.056,253.155,20.767Z" transform="translate(-136.492 -0.329)" fill="#fff"/><path d="M277.646,3.65a15.352,15.352,0,0,0-1.376-.69l-21.1,21.1a15.365,15.365,0,0,0,.69,1.376Z" transform="translate(-137.766 -1.598)" fill="#fff"/><path d="M282.411,7.62c-.414-.368-.847-.713-1.3-1.04L258.78,28.913c.327.451.672.883,1.04,1.3Z" transform="translate(-139.715 -3.553)" fill="#fff"/><path d="M264.866,35.018l22.347-22.347a15.277,15.277,0,0,0-1.173-1.431L263.43,33.849A16.746,16.746,0,0,0,264.866,35.018Z" transform="translate(-142.226 -6.068)" fill="#fff"/><path d="M271,39.827,292.027,18.8a15.72,15.72,0,0,0-.975-1.9L269.1,38.851A15.729,15.729,0,0,0,271,39.827Z" transform="translate(-145.287 -9.124)" fill="#fff"/><path d="M296.778,26.191a16.424,16.424,0,0,0-.626-2.521L275.88,43.942a15.3,15.3,0,0,0,2.521.626Z" transform="translate(-148.947 -12.779)" fill="#fff"/><path d="M301.27,35.391a16.216,16.216,0,0,0,.152-2.181c0-.446-.023-.893-.06-1.33L284.09,49.152c.437.037.883.06,1.33.06a16.221,16.221,0,0,0,2.181-.152Z" transform="translate(-153.38 -17.212)" fill="#fff"/><path d="M306.772,42.55,294.75,54.572A16.016,16.016,0,0,0,306.772,42.55Z" transform="translate(-159.135 -22.973)" fill="#fff"/><path d="M0,16.66H4.173l6.639,8.512V16.66h4.394v16.1h-3.92L4.394,23.93v8.834H0Z" transform="translate(0 -8.995)" fill="#fff"/><path d="M39.25,16.66H52.179v3.8H43.644v2.439h7.73v3.52h-7.73v2.554h8.65v3.8H39.25Z" transform="translate(-21.191 -8.995)" fill="#fff"/><path d="M70.25,16.606h4.716l2.807,9.317,3.106-9.363H84.72l3.106,9.363,2.807-9.317h4.624L89.873,32.825H85.985l-3.244-9.271-3.221,9.271H75.633Z" transform="translate(-37.928 -8.941)" fill="#fff"/><path d="M131.331,20.571H126.5V16.66h14.125v3.911h-4.831V32.764h-4.463Z" transform="translate(-68.297 -8.995)" fill="#fff"/><path d="M168.9,32.708a9.036,9.036,0,0,1-3.451-.653,8.469,8.469,0,0,1-2.738-1.785,8.23,8.23,0,0,1-2.462-5.889v-.046a8.232,8.232,0,0,1,2.485-5.926,8.671,8.671,0,0,1,2.761-1.794,9.439,9.439,0,0,1,6.9,0,8.47,8.47,0,0,1,2.738,1.785,8.23,8.23,0,0,1,2.462,5.889v.046a8.232,8.232,0,0,1-2.485,5.926,8.671,8.671,0,0,1-2.761,1.794A9.036,9.036,0,0,1,168.9,32.708Zm.032-4.026a4.023,4.023,0,0,0,1.684-.345,3.841,3.841,0,0,0,1.293-.934,4.279,4.279,0,0,0,.828-1.366,4.619,4.619,0,0,0,.3-1.656v-.046a4.62,4.62,0,0,0-.3-1.656,4.259,4.259,0,0,0-.851-1.38,4.078,4.078,0,0,0-4.67-.971,4.015,4.015,0,0,0-2.121,2.3,4.715,4.715,0,0,0-.29,1.656v.046a4.62,4.62,0,0,0,.3,1.656,4.316,4.316,0,0,0,.842,1.38,4.1,4.1,0,0,0,1.3.957A3.92,3.92,0,0,0,168.932,28.682Z" transform="translate(-86.519 -8.617)" fill="#fff"/><path d="M203,16.66h4.173l6.639,8.512V16.66h4.394v16.1h-3.92l-6.892-8.834v8.834H203Z" transform="translate(-109.6 -8.995)" fill="#fff"/></svg>