<svg xmlns="http://www.w3.org/2000/svg" width="552.69" height="69.55" viewBox="0 0 552.69 69.55"><path d="M0,16.66H9.07L23.5,35.16V16.66h9.55v35H24.53L9.55,32.46v19.2H0Z"/><path d="M39.25,16.66h28.1v8.25H48.8v5.3H65.6v7.65H48.8v5.55H67.6v8.25H39.25Z"/><path d="M70.25,16.66H80.5l6.1,20.25,6.75-20.35h8.35l6.75,20.35,6.1-20.25H124.6L112.9,51.91h-8.45L97.4,31.76l-7,20.15H81.95Z"/><path d="M137,25.16H126.5v-8.5h30.7v8.5H146.7v26.5H137Z"/><path d="M179.05,52.36a19.639,19.639,0,0,1-7.5-1.42,18.408,18.408,0,0,1-5.95-3.88,17.887,17.887,0,0,1-5.35-12.8v-.1a17.892,17.892,0,0,1,5.4-12.88,18.846,18.846,0,0,1,6-3.9,20.516,20.516,0,0,1,15,0,18.408,18.408,0,0,1,5.95,3.88,17.887,17.887,0,0,1,5.35,12.8v.1a17.892,17.892,0,0,1-5.4,12.88,18.846,18.846,0,0,1-6,3.9A19.639,19.639,0,0,1,179.05,52.36Zm.07-8.75a8.743,8.743,0,0,0,3.66-.75,8.348,8.348,0,0,0,2.81-2.03,9.3,9.3,0,0,0,1.8-2.97,10.039,10.039,0,0,0,.65-3.6v-.1a10.039,10.039,0,0,0-.65-3.6,9.257,9.257,0,0,0-1.85-3,9.044,9.044,0,0,0-2.86-2.08,9.067,9.067,0,0,0-7.29-.03,8.726,8.726,0,0,0-4.61,5,10.249,10.249,0,0,0-.63,3.6v.1a10.039,10.039,0,0,0,.65,3.6,9.38,9.38,0,0,0,1.83,3,8.917,8.917,0,0,0,2.83,2.08A8.52,8.52,0,0,0,179.12,43.61Z"/><path d="M203,16.66h9.07l14.43,18.5V16.66h9.55v35h-8.52l-14.98-19.2v19.2H203Z"/><path d="M339.19,16.66h28.1v8.25H348.74v5.3h16.8v7.65h-16.8v5.55h18.8v8.25H339.19Z"/><path d="M372.54,16.66h9.07l14.43,18.5V16.66h9.55v35h-8.52l-14.98-19.2v19.2h-9.55Z"/><path d="M411.79,16.66h28.1v8.25H421.34v5.3h16.8v7.65h-16.8v5.55h18.8v8.25H411.79Z"/><path d="M445.14,16.66h16.55a20.427,20.427,0,0,1,6.85,1,11.758,11.758,0,0,1,4.55,2.8,10.806,10.806,0,0,1,3.1,8.15v.1a11.012,11.012,0,0,1-1.95,6.7,12.285,12.285,0,0,1-5.25,4.05l8.35,12.2h-11.2l-7.05-10.6h-4.25v10.6h-9.7v-35Zm16.1,16.8a5.854,5.854,0,0,0,3.85-1.13,3.734,3.734,0,0,0,1.35-3.02v-.1a3.644,3.644,0,0,0-1.4-3.13,6.423,6.423,0,0,0-3.85-1.02h-6.35v8.4Z"/><path d="M498.94,52.36a21,21,0,0,1-7.58-1.33,18.166,18.166,0,0,1-6.03-3.72,17.249,17.249,0,0,1-4-5.73,18.1,18.1,0,0,1-1.45-7.33v-.1a17.939,17.939,0,0,1,1.42-7.13,18.144,18.144,0,0,1,3.91-5.8,17.825,17.825,0,0,1,5.96-3.88,19.963,19.963,0,0,1,7.52-1.4,21.542,21.542,0,0,1,8.02,1.35,22.043,22.043,0,0,1,6.18,3.75l-5.7,6.85a15.679,15.679,0,0,0-3.88-2.45,11.445,11.445,0,0,0-4.58-.85,8.342,8.342,0,0,0-3.53.75,8.712,8.712,0,0,0-2.82,2.05,10,10,0,0,0-2.6,6.8v.1a10.6,10.6,0,0,0,.7,3.9,8.874,8.874,0,0,0,1.98,3.08,9.268,9.268,0,0,0,3.01,2,9.878,9.878,0,0,0,3.84.72,10.027,10.027,0,0,0,5.62-1.45V38.29h-6.9v-7.1h16.1V46.94a25.576,25.576,0,0,1-6.6,3.85A22.183,22.183,0,0,1,498.94,52.36Z"/><path d="M529.64,38.56l-13.3-21.9h11.05l7.2,12.75,7.25-12.75h10.85l-13.3,21.75V51.66h-9.75Z"/><path d="M274.8,2.2a34.4,34.4,0,0,0-5.17,2.44l-12.8,12.8a33.945,33.945,0,0,0-2.44,5.17Z" fill="#ed1c24"/><path d="M286.98,0c-.99,0-1.96.05-2.93.13L252.33,31.85c-.08.97-.13,1.94-.13,2.93,0,.17.01.33.01.5L287.48.01C287.31.01,287.15,0,286.98,0Z" fill="#ed1c24"/><path d="M253.56,44.42,296.62,1.36q-1.545-.45-3.15-.75L252.81,41.27Q253.125,42.875,253.56,44.42Z" fill="#ed1c24"/><path d="M304.02,4.46a33.385,33.385,0,0,0-2.99-1.5L255.17,48.82a33.386,33.386,0,0,0,1.5,2.99Z" fill="#ed1c24"/><path d="M310.14,8.84c-.9-.8-1.84-1.55-2.82-2.26L258.78,55.12c.71.98,1.46,1.92,2.26,2.82Z" fill="#ed1c24"/><path d="M266.55,62.92l48.57-48.57a33.206,33.206,0,0,0-2.55-3.11L263.43,60.38A36.378,36.378,0,0,0,266.55,62.92Z" fill="#ed1c24"/><path d="M273.23,66.73l45.7-45.7a34.189,34.189,0,0,0-2.12-4.13L269.1,64.61A34.187,34.187,0,0,0,273.23,66.73Z" fill="#ed1c24"/><path d="M321.3,29.15a35.685,35.685,0,0,0-1.36-5.48L275.88,67.73a33.26,33.26,0,0,0,5.48,1.36Z" fill="#ed1c24"/><path d="M321.43,39.51a35.262,35.262,0,0,0,.33-4.74c0-.97-.05-1.94-.13-2.89L284.09,69.42c.95.08,1.92.13,2.89.13a35.26,35.26,0,0,0,4.74-.33Z" fill="#ed1c24"/><path d="M320.88,42.55,294.75,68.68A34.809,34.809,0,0,0,320.88,42.55Z" fill="#ed1c24"/></svg>