<svg xmlns="http://www.w3.org/2000/svg" width="552.693" height="69.56" viewBox="0 0 552.693 69.56"><g transform="translate(-130.346 -415.22)"><path d="M130.346,431.877h9.069l14.431,18.5v-18.5h9.55v35h-8.518l-14.982-19.2v19.2h-9.55Z" fill="#fff"/><path d="M169.6,431.877h28.1v8.25H179.145v5.3h16.8v7.65h-16.8v5.55h18.8v8.25H169.6Z" fill="#fff"/><path d="M200.6,431.877h10.25l6.1,20.25,6.75-20.35h8.35l6.75,20.35,6.1-20.25h10.05l-11.7,35.25h-8.45l-7.05-20.15-7,20.15h-8.45Z" fill="#fff"/><path d="M267.344,440.377h-10.5v-8.5h30.7v8.5h-10.5v26.5h-9.7Z" fill="#fff"/><path d="M309.394,467.577a19.454,19.454,0,0,1-7.5-1.425,18.468,18.468,0,0,1-5.95-3.875,17.877,17.877,0,0,1-3.925-5.75,17.592,17.592,0,0,1-1.425-7.05v-.1a17.839,17.839,0,0,1,5.4-12.875,18.847,18.847,0,0,1,6-3.9,20.45,20.45,0,0,1,15,0,18.479,18.479,0,0,1,5.95,3.875,17.9,17.9,0,0,1,3.925,5.75,17.592,17.592,0,0,1,1.425,7.05v.1a17.839,17.839,0,0,1-5.4,12.875,18.847,18.847,0,0,1-6,3.9A19.454,19.454,0,0,1,309.394,467.577Zm.075-8.75a8.763,8.763,0,0,0,3.66-.75,8.425,8.425,0,0,0,2.808-2.025,9.4,9.4,0,0,0,1.8-2.975,9.978,9.978,0,0,0,.652-3.6v-.1a9.978,9.978,0,0,0-.652-3.6,9.3,9.3,0,0,0-1.855-3,9.135,9.135,0,0,0-2.858-2.075,9.106,9.106,0,0,0-7.295-.025,8.712,8.712,0,0,0-4.613,5,10.321,10.321,0,0,0-.627,3.6v.1a9.973,9.973,0,0,0,.651,3.6,9.478,9.478,0,0,0,1.831,3,8.828,8.828,0,0,0,2.833,2.075A8.513,8.513,0,0,0,309.469,458.827Z" fill="#fff"/><path d="M333.344,431.877h9.069l14.431,18.5v-18.5h9.55v35h-8.519l-14.981-19.2v19.2h-9.55Z" fill="#fff"/><path d="M469.54,431.877h28.1v8.25h-18.55v5.3h16.8v7.65h-16.8v5.55h18.8v8.25H469.54Z" fill="#fff"/><path d="M502.89,431.877h9.07l14.43,18.5v-18.5h9.55v35h-8.518l-14.982-19.2v19.2h-9.55Z" fill="#fff"/><path d="M542.14,431.877h28.1v8.25H551.69v5.3h16.8v7.65h-16.8v5.55h18.8v8.25H542.14Z" fill="#fff"/><path d="M575.489,431.877H592.04a20.525,20.525,0,0,1,6.85,1,11.727,11.727,0,0,1,4.549,2.8,10.815,10.815,0,0,1,3.1,8.15v.1a11.006,11.006,0,0,1-1.95,6.7,12.325,12.325,0,0,1-5.25,4.05l8.349,12.2h-11.2l-7.05-10.6h-4.25v10.6h-9.7Zm16.1,16.8a5.856,5.856,0,0,0,3.849-1.125,3.732,3.732,0,0,0,1.351-3.025v-.1a3.621,3.621,0,0,0-1.4-3.125,6.4,6.4,0,0,0-3.85-1.025h-6.351v8.4Z" fill="#fff"/><path d="M629.289,467.577a21.1,21.1,0,0,1-7.575-1.325,18.077,18.077,0,0,1-6.026-3.725,17.221,17.221,0,0,1-4-5.725,18.133,18.133,0,0,1-1.449-7.325v-.1a18.114,18.114,0,0,1,5.323-12.925,17.758,17.758,0,0,1,5.957-3.875,19.935,19.935,0,0,1,7.52-1.4,21.564,21.564,0,0,1,8.024,1.35,21.98,21.98,0,0,1,6.176,3.75l-5.7,6.85a15.692,15.692,0,0,0-3.875-2.45,11.489,11.489,0,0,0-4.575-.85,8.308,8.308,0,0,0-3.526.75,8.864,8.864,0,0,0-2.824,2.05,9.827,9.827,0,0,0-1.9,3.05,10,10,0,0,0-.7,3.75v.1a10.62,10.62,0,0,0,.7,3.9,8.812,8.812,0,0,0,1.981,3.075,9.306,9.306,0,0,0,3.011,2,9.838,9.838,0,0,0,3.837.725,10.043,10.043,0,0,0,5.619-1.45v-4.25h-6.9v-7.1h16.1v15.75a25.448,25.448,0,0,1-6.6,3.85A22.608,22.608,0,0,1,629.289,467.577Z" fill="#fff"/><path d="M659.989,453.777l-13.3-21.9h11.05l7.2,12.75,7.25-12.75h10.85l-13.3,21.75v13.25h-9.75Z" fill="#fff"/><path d="M405.151,417.416a34.618,34.618,0,0,0-5.169,2.443l-12.8,12.8a34.664,34.664,0,0,0-2.443,5.169Z" fill="#fff"/><path d="M417.326,415.22c-.989,0-1.965.052-2.932.133l-31.716,31.715c-.08.967-.132,1.943-.132,2.932,0,.168.011.333.013.5l35.268-35.268C417.659,415.231,417.494,415.22,417.326,415.22Z" fill="#fff"/><path d="M383.911,459.642l43.057-43.057q-1.548-.445-3.151-.75L383.16,456.491Q383.463,458.094,383.911,459.642Z" fill="#fff"/><path d="M434.363,419.683q-1.453-.819-2.99-1.5L385.51,464.048q.68,1.536,1.5,2.99Z" fill="#fff"/><path d="M440.482,424.057a35.006,35.006,0,0,0-2.815-2.26l-48.544,48.544a35.018,35.018,0,0,0,2.26,2.815Z" fill="#fff"/><path d="M396.894,478.139l48.57-48.571a35.1,35.1,0,0,0-2.548-3.115L393.779,475.59A34.951,34.951,0,0,0,396.894,478.139Z" fill="#fff"/><path d="M403.575,481.95l45.7-45.7a34.567,34.567,0,0,0-2.119-4.131l-47.714,47.714A34.8,34.8,0,0,0,403.575,481.95Z" fill="#fff"/><path d="M451.645,444.372a34.479,34.479,0,0,0-1.361-5.475l-44.061,44.062a34.483,34.483,0,0,0,5.475,1.361Z" fill="#fff"/><path d="M451.776,454.735a35.046,35.046,0,0,0,.329-4.735c0-.974-.05-1.936-.129-2.89l-37.54,37.541c.954.078,1.916.129,2.89.129a35.046,35.046,0,0,0,4.735-.33Z" fill="#fff"/><path d="M451.223,457.77,425.1,483.9A34.813,34.813,0,0,0,451.223,457.77Z" fill="#fff"/></g></svg>